Coordinates
version=1
nRows=6
nColumns=63
inDegrees=yes

Units are S.I. units (second, meters, Newtons, ...)
If the header above contains a line with 'inDegrees', this indicates whether rotational values are in degrees (yes) or radians (no).

endheader
time	pelvis_tilt	pelvis_list	pelvis_rotation	pelvis_tx	pelvis_ty	pelvis_tz	hip_flexion_r	hip_adduction_r	hip_rotation_r	knee_angle_r	knee_angle_r_beta	ankle_angle_r	subtalar_angle_r	mtp_angle_r	hip_flexion_l	hip_adduction_l	hip_rotation_l	knee_angle_l	knee_angle_l_beta	ankle_angle_l	subtalar_angle_l	mtp_angle_l	L5_S1_Flex_Ext	L5_S1_Lat_Bending	L5_S1_axial_rotation	L4_L5_Flex_Ext	L4_L5_Lat_Bending	L4_L5_axial_rotation	L3_L4_Flex_Ext	L3_L4_Lat_Bending	L3_L4_axial_rotation	L2_L3_Flex_Ext	L2_L3_Lat_Bending	L2_L3_axial_rotation	L1_L2_Flex_Ext	L1_L2_Lat_Bending	L1_L2_axial_rotation	L1_T12_Flex_Ext	L1_T12_Lat_Bending	L1_T12_axial_rotation	Abs_r3	Abs_r2	Abs_r1	Abs_t1	Abs_t2	neck_flexion	neck_bending	neck_rotation	arm_flex_r	arm_add_r	arm_rot_r	elbow_flex_r	pro_sup_r	wrist_flex_r	wrist_dev_r	arm_flex_l	arm_add_l	arm_rot_l	elbow_flex_l	pro_sup_l	wrist_flex_l	wrist_dev_l
3.203390	-1.184527	-7.185686	96.429826	0.228784	1.022358	0.444249	2.783940	-1.576719	-17.628675	7.302729	0.127457	17.448937	14.155739	0.000000	3.356071	1.480208	-12.577221	4.963107	0.086623	21.055803	9.185040	0.000000	0.009248	-0.168185	1.050376	0.017174	-0.223686	1.116025	0.015193	-0.408924	1.116025	0.010569	-0.408924	0.919079	0.008587	-0.342962	0.853431	0.005284	-0.260518	0.787782	0.066056	-1.902540	5.841877	0.000000	0.000000	26.654950	0.011595	4.605577	19.008289	-16.740687	127.593799	3.630789	2.485767	-3.768726	-16.254579	20.316763	-15.443643	170.848947	-2.080328	1.600197	-7.124366	-23.353583
3.220339	-1.139910	-7.128450	96.737321	0.227920	1.023090	0.445031	2.756846	-1.631838	-18.303185	7.424592	0.129584	17.304913	14.407480	0.000000	3.350882	1.502742	-11.886517	5.023955	0.087685	20.905275	8.566730	0.000000	0.003208	-0.157652	1.008718	0.005957	-0.209677	1.071763	0.005270	-0.383315	1.071763	0.003666	-0.383315	0.882628	0.002979	-0.321484	0.819583	0.001833	-0.244203	0.756539	0.022913	-1.783392	5.610187	0.000000	0.000000	26.585864	-0.029725	4.447640	20.177700	-14.623556	130.621481	3.422712	1.806632	-2.688245	-17.526549	21.468028	-12.267687	175.820770	-2.496368	1.178638	-5.377989	-24.265335
3.237288	-1.160391	-7.080950	97.001335	0.227268	1.023720	0.445399	2.670578	-1.727789	-18.851997	7.465928	0.130305	17.276826	14.681109	0.000000	3.304838	1.580817	-11.255730	5.047154	0.088089	20.802022	8.046036	0.000000	0.000665	-0.160216	0.956585	0.001235	-0.213088	1.016371	0.001092	-0.389550	1.016371	0.000760	-0.389550	0.837012	0.000617	-0.326713	0.777225	0.000380	-0.248175	0.717439	0.004750	-1.812399	5.320238	0.000000	0.000000	26.555888	0.067261	4.255479	21.205230	-12.340789	133.862330	3.158784	1.479047	-1.402866	-18.613224	22.335780	-9.582832	177.314934	-1.919860	1.917386	-3.532445	-24.546423
3.254237	-1.246803	-7.043739	97.237255	0.226826	1.024276	0.445372	2.523687	-1.861887	-19.282064	7.421195	0.129524	17.341390	14.966854	0.000000	3.223650	1.714313	-10.672292	5.033751	0.087856	20.734629	7.621064	0.000000	0.001317	-0.176309	0.900405	0.002446	-0.234491	0.956680	0.002164	-0.428679	0.956680	0.001505	-0.428679	0.787854	0.001223	-0.359530	0.731579	0.000753	-0.273103	0.675304	0.009407	-1.994447	5.007782	0.000000	0.000000	26.549682	0.265629	3.964900	22.020401	-9.931821	137.268902	2.858637	1.553164	-0.106764	-19.610026	23.011715	-7.424670	175.746307	-0.385111	3.062809	-1.749333	-24.073669
3.271186	-1.385406	-7.027902	97.438419	0.226595	1.024761	0.445002	2.340925	-2.020741	-19.556672	7.302007	0.127444	17.471948	15.201871	0.000000	3.131098	1.884934	-10.221161	4.993597	0.087155	20.703470	7.403575	0.000000	0.006004	-0.202985	0.837871	0.011151	-0.269970	0.890238	0.009865	-0.493538	0.890238	0.006862	-0.493538	0.733137	0.005576	-0.413927	0.680770	0.003431	-0.314424	0.628403	0.042888	-2.296208	4.659987	0.000000	0.000000	26.571180	0.553039	3.645927	22.622830	-7.457919	140.754992	2.574526	1.908423	1.284377	-20.538973	23.382455	-5.828760	170.873302	2.091445	5.609828	0.147104	-22.735200
3.288136	-1.568425	-7.031815	97.625858	0.226550	1.025215	0.444375	2.130582	-2.198772	-19.743020	7.120015	0.124268	17.636352	15.412959	0.000000	3.038249	2.084769	-9.908994	4.934217	0.086118	20.705762	7.408665	0.000000	0.013673	-0.237471	0.765434	0.025392	-0.315836	0.813274	0.022463	-0.577386	0.813274	0.015627	-0.577386	0.669755	0.012696	-0.484250	0.621915	0.007813	-0.367842	0.574076	0.097663	-2.686317	4.257116	0.000000	0.000000	26.603258	0.911407	3.405921	23.039155	-4.959661	144.846210	2.278421	1.985008	2.810164	-21.425019	23.544948	-4.796874	163.248978	5.408379	9.435688	2.257176	-20.478231
